<svg xmlns="http://www.w3.org/2000/svg" viewBox="0 0 288.89 61.23">
  <title>Datový zdroj 1</title>
  <g id="Vrstva_2" data-name="Vrstva 2">
    <g id="Layer_1" data-name="Layer 1">
      <path
        d="M84.69,32.68c1.57-.55,3.2-1.07,4.93-1.54a84.62,84.62,0,0,1,11.6-2.21.3.3,0,0,0,0-.4,5.11,5.11,0,0,1-.46-1q-4.47.52-8.68,1.42c-2.64.56-5.13,1.22-7.46,2,0,.1,0,.2,0,.3A7.13,7.13,0,0,1,84.69,32.68Z"/>
      <path
        d="M99.33,27.4l1.38-.13a4.67,4.67,0,0,1-.17-1.43l-.5,0a98.29,98.29,0,0,0-15,2.54v0A2.9,2.9,0,0,1,85,29c-.09.39-.2.77-.26,1.16,1.06-.29,2.14-.57,3.26-.83A103.65,103.65,0,0,1,99.33,27.4Z"/>
      <path
        d="M81,30a.31.31,0,0,0-.15-.38,69.93,69.93,0,0,0-10.06,3.89,43.62,43.62,0,0,0-7.72,4.6c-2.63,2-5.15,4.1-7.51,6.19-1.22,1.08-2.41,2.16-3.64,3.23a1.33,1.33,0,0,1,.43.31.34.34,0,0,0,.27.1.65.65,0,0,1,.63.2,1.21,1.21,0,0,0,1,.45h.08c1.27-1.08,2.46-2.17,3.69-3.26,1.65-1.46,3.26-2.92,5-4.36A51.79,51.79,0,0,1,70.29,36a57.85,57.85,0,0,1,8-3.74c.8-.3,1.61-.58,2.44-.87C80.81,30.92,80.89,30.43,81,30ZM79.37,31h-.09c0-.09-.15-.17-.15-.26s.1-.16.16-.24c.07.08.2.13.21.22S79.42,30.93,79.37,31Z"/>
      <path
        d="M78.19,33.33a1.48,1.48,0,0,1,.13.08v.09c-.08,0-.17.13-.23.11a.55.55,0,0,1-.2-.15l-.3.13a43.37,43.37,0,0,0-8.21,4.68c-2.09,1.59-4,3.2-5.9,4.84-1.53,1.37-2.94,2.75-4.4,4.12a.45.45,0,0,1,0,.11.34.34,0,0,1-.38.3h-.06l-1.55,1.43-.72.64a1.28,1.28,0,0,0,.29.13A.77.77,0,0,1,57,50a.48.48,0,0,0,.56.12.83.83,0,0,1,.34-.07,3,3,0,0,0,1.77-.53.45.45,0,0,1,.47,0c.19-.16.4-.32.58-.48,1.67-1.42,3.06-2.88,4.64-4.32s3.13-2.77,4.79-4.14a38.11,38.11,0,0,1,3.44-2.49.37.37,0,0,1-.18-.32c0-.3.21-.59.44-.59a.31.31,0,0,1,.34.31,1.5,1.5,0,0,1,0,.22c1.34-.83,2.81-1.64,4.38-2.41l0,0c0-.12,0-.28.06-.35s.24,0,.35,0,.1.08.15.12l.49-.25.38-.16a1,1,0,0,0,.05-.34,4.11,4.11,0,0,0-.16-.85.94.94,0,0,1,.19-.84C79.41,32.81,78.8,33.07,78.19,33.33ZM58,49.7a.35.35,0,0,1-.47.23c-.4-.11-.53-.22-.54-.51a.37.37,0,0,1,.49-.4,1.49,1.49,0,0,1,.37.14A.38.38,0,0,1,58,49.7Z"/>
      <path
        d="M85.51,26.86a109.16,109.16,0,0,1,10.81-1.92c1.47-.19,3-.34,4.47-.49a5,5,0,0,1,.78-1.49c-5.4.61-10.69,1.36-15.67,2.41l-.47.11a2,2,0,0,1-.09.55.62.62,0,0,0,.16.82Z"/>
      <path
        d="M57.92,37.2a8.11,8.11,0,0,1-.86-.05c-.66.48-1.3,1-1.9,1.47-2.32,1.91-4.48,3.85-6.74,5.77l-.38.33.08.15a1.77,1.77,0,0,0,.31.46c.19.23.39.44.58.66s.12.2.19.29.21.22.33.2c1.23-1.09,2.42-2.19,3.7-3.26,2.14-1.82,4.32-3.62,6.56-5.41.37-.31.79-.6,1.19-.89,0,0,0,0,0,0l-1.76.29a4.15,4.15,0,0,1-.61,0ZM50.21,45a.27.27,0,0,1-.46,0,1.26,1.26,0,0,1-.31-.38c-.1-.2,0-.35.32-.35a3,3,0,0,1,.41.17A.35.35,0,0,1,50.21,45Z"/>
      <path
        d="M80.81,26.57c-1.85.48-3.65,1-5.37,1.57-2.59.85-5,1.76-7.21,2.74v0c0,.21-.13.41-.2.62a.83.83,0,0,1-.49.56,1,1,0,0,0-.63.74,2.13,2.13,0,0,1-.18.41,1.23,1.23,0,0,0-.14.31l.33-.18L68,32.84a.35.35,0,0,1,.24-.15h0a74.42,74.42,0,0,1,12-4.51.36.36,0,0,1-.23-.11.45.45,0,0,1,0-.42,2.54,2.54,0,0,1,.51-.47,1.83,1.83,0,0,1,.24-.13c.22-.13.23-.24.06-.44Zm-8.62,4.06c-.07,0-.08-.17-.13-.25a.46.46,0,0,0,.07-.07c.09,0,.2.05.25.11a1.14,1.14,0,0,1,.13.3A.73.73,0,0,1,72.19,30.63Z"/>
      <path
        d="M100.67,39.17a1.88,1.88,0,0,0,.18-.38.82.82,0,0,0-.35-.87.71.71,0,0,1-.27-.42c-1.62.45-3.18.94-4.66,1.48a44.46,44.46,0,0,0-8.71,4.27s0,0,0,0a1.06,1.06,0,0,0,.23,1l.43.43c.13-.17.25-.34.39-.5s.2-.21.3-.32c.1.12.26.22.28.35a8.19,8.19,0,0,1,.09.88,43.29,43.29,0,0,1,6.6-3.67,48.94,48.94,0,0,1,5.28-2Zm-7,2c-.08,0-.15-.1-.23-.15s0-.07,0-.1.18-.12.25-.1.14.13.21.2S93.8,41.18,93.72,41.18Zm5-1.61c-.27,0-.4-.22-.37-.53s.25-.54.46-.52a.78.78,0,0,1,.49.69C99.3,39.46,99.07,39.6,98.75,39.57Z"/>
      <path
        d="M85.53,41l.06.16a42.91,42.91,0,0,1,4.75-2.41,50.41,50.41,0,0,1,10.37-3.27,2.34,2.34,0,0,1,0-1,.77.77,0,0,0-.16-.76c-2,.38-3.88.82-5.71,1.33a48.93,48.93,0,0,0-9,3.37L85,39c0,.09,0,.18-.06.28a1,1,0,0,0,0,.61A13.07,13.07,0,0,0,85.53,41Z"/>
      <path
        d="M70,43.8h0a.28.28,0,0,1,0,.42,7.28,7.28,0,0,1-.71.52l-.22-.2c-.44.39-.88.78-1.33,1.16l-1,.91a.38.38,0,0,1,.16.15,3.58,3.58,0,0,1,.19.58c0,.42-.25.61-.65.5-.2-.06-.45-.08-.48-.36a1,1,0,0,1,0-.17l-.27.24a.21.21,0,0,1,.2.22c0,.21-.19.32-.5.32a.43.43,0,0,1-.24-.06l-.48.44a.31.31,0,0,1,.48,0,2.21,2.21,0,0,1,.65.86c0,.12.14.27.28.18s.09-.22.08-.34-.11-.24-.11-.35a1,1,0,0,1,.15-.52c.13-.16.35-.11.53,0s.29.18.45.26c.31.16.52,0,.61-.29a1.28,1.28,0,0,1,.19-.57c.29-.34.44-.86,1-.89.07,0,.15-.11.2-.18.16-.27.11-.36-.16-.53s-.28-.26-.28-.38a.56.56,0,0,1,.29-.39,1.13,1.13,0,0,1,1.15.09c.3.17.31.23.19.52s-.06.31.09.36a.45.45,0,0,0,.36-.11s0-.22,0-.3-.06-.35.13-.47a2,2,0,0,0,.38-.27c.15-.14.12-.27-.08-.34a3.52,3.52,0,0,1-.42-.15c-.19-.1-.2-.27,0-.42a.62.62,0,0,1,.69-.13,1.92,1.92,0,0,0,1.7-.14.84.84,0,0,0,.41-.46.81.81,0,0,1,.52-.57.32.32,0,0,0,.22-.43c-.06-.31,0-.4.27-.52a.79.79,0,0,0,.6-.65c0-.21.14-.27.35-.17s.47,0,.43-.34a1.14,1.14,0,0,1,0-.45,4.14,4.14,0,0,1,.29-.55,1.11,1.11,0,0,1,.53-.56.68.68,0,0,0,.42-.53,1.1,1.1,0,0,1,.31-.69,36.58,36.58,0,0,0-4.2,2.84C72.24,41.87,71.12,42.83,70,43.8Zm2.78-1.18c-.21,0-.4-.15-.38-.33s.18-.28.36-.28a.37.37,0,0,1,.41.31A.36.36,0,0,1,72.79,42.62Z"/>
      <path
        d="M100.59,30.53c-2,.29-4,.67-6,1.09a65.71,65.71,0,0,0-9.79,2.94c0,.13,0,.25,0,.37,0,.6-.06,1.19-.06,1.79a58,58,0,0,1,9.39-3.28,67.1,67.1,0,0,1,6.64-1.36,2,2,0,0,0-.13-.43,1.32,1.32,0,0,1-.11-1Z"/>
      <path
        d="M53.05,35.15l-1.54,1a43.39,43.39,0,0,0-3.79,2.91c-1,.85-2,1.71-3,2.56l.14,0a1,1,0,0,0,.7.22,1,1,0,0,1,.76.9.31.31,0,0,1-.06.16c-.11.21-.18.3-.15.38.78-.67,1.55-1.35,2.36-2,2-1.68,4.06-3.37,6.33-5a3.61,3.61,0,0,1-.74-.56A2.83,2.83,0,0,0,53.05,35.15Z"/>
      <path
        d="M68,27.59a1.57,1.57,0,0,0,.23,1.24,1.9,1.9,0,0,0,.21.19q2.4-.93,5-1.76a.34.34,0,0,1,.31-.17s0,0,.09,0l.16-.05c2.24-.67,4.52-1.32,6.87-1.92a.52.52,0,0,0-.15-.74.65.65,0,0,1-.24-.58,111.84,111.84,0,0,0-12.11,3.59Z"/>
      <path
        d="M98.24,43a1.09,1.09,0,0,1,.36.06.69.69,0,0,0,.65-.08.86.86,0,0,1,.5-.14c.22,0,.43,0,.53-.24s-.06-.39-.23-.52l-.12-.14a44.18,44.18,0,0,0-6.12,3c-1.07.63-2.08,1.28-3.07,1.93a3.75,3.75,0,0,1,1.19.19A1.55,1.55,0,0,0,93.16,47a.71.71,0,0,1,.41,0c.27,0,.54.11.8.12s.45-.08.37-.44A.57.57,0,0,1,95,46a2.53,2.53,0,0,1,.49-.31,1.79,1.79,0,0,1,1.21,0A.52.52,0,0,1,97,46l.7-.4a.51.51,0,0,1,.15-.33c.2-.17.18-.31.08-.53a.54.54,0,0,1,0-.48c.07-.11.28-.12.43-.15a2.64,2.64,0,0,1,.29,0c.2,0,.36-.07.36-.29a.31.31,0,0,0-.39-.34c-.13,0-.26.06-.39.07s-.32-.07-.33-.26A.27.27,0,0,1,98.24,43Z"/>
      <path
        d="M51.5,32.69a.64.64,0,0,1-.35-.58,1.74,1.74,0,0,0,0-.22q-2.19,1.29-4.1,2.64c-1.79,1.28-3.46,2.59-5.1,3.9,0,.14-.11.21-.42.34h0l-.15.12a.13.13,0,0,0,0,.19.5.5,0,0,0,.21.1,1.31,1.31,0,0,1,.91.66.44.44,0,0,1,.08.45.4.4,0,0,0,0,.34c1.94-1.59,3.88-3.18,5.93-4.74,1.08-.83,2.24-1.63,3.47-2.42a1.31,1.31,0,0,1-.08-.21A.9.9,0,0,0,51.5,32.69Zm-8,6.25a.36.36,0,0,1-.23-.22c0-.22.18-.42.49-.42,0,0,.16.1.19.2S43.64,39,43.48,38.94Z"/>
      <path
        d="M67.1,24.78l0,0a.67.67,0,0,1,.4.7.8.8,0,0,0,.22.57A93,93,0,0,1,78.21,23l2-.44a4.29,4.29,0,0,1-.12-.8c0-.33-.06-.42-.39-.51l-.07,0c-3.93.94-7.69,2-11.25,3.15Z"/>
      <path
        d="M34.58,44.5a50.25,50.25,0,0,1-5.81,4.2,1.65,1.65,0,0,1,1.41.29.54.54,0,0,0,.87-.2c.17-.35.19-.35.55-.19a2,2,0,0,0,.72.2c.63-.41,1.23-.83,1.82-1.25L34,47.48a.69.69,0,0,0,0-.13l.32,0h.13c.26-.19.52-.38.77-.58,1.43-1.12,2.77-2.26,4.11-3.4a.25.25,0,0,1,0-.19c.07-.21,0-.32-.14-.47a.68.68,0,0,1-.18-.37.56.56,0,0,0-.4-.52,1.25,1.25,0,0,1-.45-.29ZM34.09,46c-.05-.07-.21-.16-.23-.26s.18-.24.34-.23.33,0,.33.21S34.35,46,34.09,46Zm1-.58c-.26,0-.36-.11-.36-.46s.13-.47.35-.47a.57.57,0,0,1,.51.57C35.63,45.3,35.42,45.45,35.14,45.45Z"/>
      <path
        d="M36.14,37.64c0,.06.09.11.14.17s.15.16.13.19a1.11,1.11,0,0,1-.22.21L36,38l-.15-.2c-1.45,1.18-2.81,2.37-4.29,3.55-2.21,1.76-4.4,3.53-6.81,5.24-1.49,1.06-3.37,2-5.09,3l-.22.13h.59a4.73,4.73,0,0,0,.54,0c.51,0,.68-.21.69-.68,0-.09.1-.24.15-.24a.26.26,0,0,1,.28.28c0,.32.1.42.41.32a4.54,4.54,0,0,0,.81-.36,1.25,1.25,0,0,1,1.25-.08l.1,0a50.53,50.53,0,0,0,4.34-2.71C31,44.69,33,42.94,35.17,41.22L38,38.93a.61.61,0,0,0-.51.09.25.25,0,0,1-.19,0c0-.07-.07-.19,0-.24s.15-.15.23-.21a4.26,4.26,0,0,0,.5-.32c.23-.19.19-.34-.1-.41s-.52-.06-.78-.1-.52,0-.7-.23a.15.15,0,0,0-.09-.05A1.73,1.73,0,0,1,36.14,37.64Zm-.58,1.68a1.16,1.16,0,0,0-.22-.06c-.13,0-.26,0-.39,0a1.2,1.2,0,0,1-.33,0s-.1-.12-.09-.17.11-.09.17-.1a.4.4,0,0,1,.23.08c.19.15.31.09.39-.12l.06-.11c.11-.13.25-.32.42-.22a.59.59,0,0,1,.17.44C36,39.29,35.75,39.3,35.56,39.32Z"/>
      <path
        d="M65.7,22.55a.48.48,0,0,0,.35.57,1,1,0,0,1,.35.32c3.92-1.3,8-2.48,12.35-3.56h.07a1,1,0,0,0-.25-.29c-.5-.35-.5-.46-.07-.88.14-.13.14-.25,0-.37-4.43,1.21-8.82,2.43-13,3.81A.45.45,0,0,1,65.7,22.55ZM67.21,22c.15,0,.39.21.35.34s-.14.17-.19.22c-.26,0-.4-.13-.37-.33A.32.32,0,0,1,67.21,22Z"/>
      <path
        d="M40.92,36.56a.28.28,0,0,0-.17.2c.7-.55,1.39-1.11,2.1-1.66a57.91,57.91,0,0,1,7.56-4.82.61.61,0,0,1,.06-.28.62.62,0,0,0,0-.82.52.52,0,0,1,0-.56,2.26,2.26,0,0,0,.13-.33c-2,1.06-4,2.14-5.81,3.25-1.37.84-2.66,1.7-3.9,2.57a2,2,0,0,0,.25.34.5.5,0,0,1,0,.72c-.32.28-.33.43-.05.75S41.33,36.38,40.92,36.56Z"/>
      <path d="M58.76,21.22a.34.34,0,0,0,.1,0s0,0,0-.06Z"/>
      <path
        d="M12.42,50a1.13,1.13,0,0,1,1.21-.12,4.81,4.81,0,0,0,1.08.22.36.36,0,0,0,.23-.08c.24-.13.47-.28.7-.43a.76.76,0,0,1,.73-.12c1.94-1.13,4-2.24,5.72-3.43,2.65-1.87,5-3.79,7.47-5.7,1.05-.83,2-1.68,3-2.51a.43.43,0,0,1-.26.09c-.28,0-.46-.15-.46-.38a.47.47,0,0,1,.48-.47.38.38,0,0,1,.41.42.47.47,0,0,1-.1.28c.38-.32.78-.64,1.19-1a.48.48,0,0,1,.1-.31.3.3,0,0,1,.25-.1l.12,0,.61-.47-.13,0a.62.62,0,0,0-.7.18.28.28,0,0,1-.21.07c-.28-.09-.55-.21-.83-.31a1.74,1.74,0,0,0-.59-.13,5.58,5.58,0,0,0-.59.1l-2.05,1.6h0a.44.44,0,0,1-.22.17l-.45.35c-1.1.86-2.06,1.75-3.17,2.62-1.73,1.34-3.38,2.7-5.32,4s-4.22,2.67-6.4,4a.42.42,0,0,1,.28.38c0,.19-.2.33-.45.33a.31.31,0,0,1-.33-.33.29.29,0,0,0,0-.09l-1.38.83-.58.36C12.06,50.29,12.11,50.27,12.42,50Z"/>
      <path
        d="M76.66,15.15l-7.31,2.39h.08c0,.06.12.13.11.18a1,1,0,0,1-.16.25c0-.06-.11-.12-.12-.18a.84.84,0,0,1,.09-.25l-1.76.58-1.67.57a4,4,0,0,1,.57.23c.23.11.22.25,0,.37s-.44.1-.57-.19l-.13-.37c-1.75.59-3.48,1.18-5.17,1.79a.78.78,0,0,1,0,.31,2.86,2.86,0,0,0-.15.41l.12.06c.05-.07.1-.15.16-.22a1.85,1.85,0,0,1,.38-.36,1.73,1.73,0,0,1,.54-.23.94.94,0,0,1,.44,0c.3.05.39.25.26.53a.54.54,0,0,1,0,.11c-.11.24-.05.39.21.4l.13,0L64,21l.16-.05A.7.7,0,0,1,64,20.9a.54.54,0,0,1-.15-.68c.2.11.39.31.62.14a.38.38,0,0,0,.09-.37,1.44,1.44,0,0,0-.48-.26s.08-.14.15-.16a.34.34,0,0,1,.25.05c.16.08.32.19.48.28s.32.17.32.37-.15.27-.31.35l-.21.15c2.72-.92,5.61-1.77,8.43-2.64l3.93-1.21a2,2,0,0,0-.18-.25c-.14-.21-.22-.46-.36-.67a.54.54,0,0,1,0-.66A.54.54,0,0,0,76.66,15.15Z"/>
      <path
        d="M93.67,11.05l.38.19.06,0a36.61,36.61,0,0,0,3.6-1.82c.78-.45,1.52-.91,2.25-1.38A.32.32,0,0,0,99.67,8a3.52,3.52,0,0,0-1,.16A.53.53,0,0,1,98,8a1,1,0,0,0-.21-.2A1.34,1.34,0,0,1,97,6.59a.57.57,0,0,0-.39-.47l-.42.31h0a.88.88,0,0,0,.12.32.94.94,0,0,1,.14.65.44.44,0,0,0,.15.31.77.77,0,0,1,0,1.18c-.27.21-.39.21-.64,0-.1-.09-.17-.22-.28-.27a.6.6,0,0,0-.41-.06c-.1,0-.16.2-.21.32s0,.16,0,.23a.67.67,0,0,1-.19.74,1.39,1.39,0,0,0-.27.41.65.65,0,0,1-.57.44,1.77,1.77,0,0,0-.33.08C93.53,10.84,93.51,11,93.67,11.05Z"/>
      <path
        d="M88.74,13.32l0-.07a.4.4,0,0,1,.08-.53.87.87,0,0,0,.25-.67.28.28,0,0,0-.44-.26.55.55,0,0,0-.36.76.28.28,0,0,1-.18.4.92.92,0,0,1-.87.08c-.29-.15-.5,0-.44.31a1.76,1.76,0,0,1,0,.61C87.39,13.74,88.07,13.54,88.74,13.32Z"/>
      <path
        d="M38.47,31.77c.16-.11.27-.3.44-.36a2.42,2.42,0,0,0,.84-.54c.25-.24.49-.19.68.11a.87.87,0,0,1,.14.41,2,2,0,0,0,0,.6c1.81-1.18,3.71-2.34,5.79-3.45,1.61-.86,3.31-1.71,5.08-2.53h0a2.77,2.77,0,0,1,.84-1.22,1.69,1.69,0,0,0,.77-1,.82.82,0,0,1,.2-.33c-1,.42-2,.83-2.89,1.26-2.78,1.29-5.48,2.61-7.91,4l-1.45.86a2.8,2.8,0,0,1,.27.43.39.39,0,0,1,0,.33c-.05.07-.2.07-.31.07s-.43-.07-.65-.09-.19-.07-.19-.16c-.67.42-1.33.84-2,1.27l0,.25a.78.78,0,0,0,.09.24A.81.81,0,0,0,38.47,31.77Z"/>
      <path
        d="M39.53,28.37l1-.58a1,1,0,0,0-.09-.13c-.23-.28-.06-.57.29-.59a.93.93,0,0,1,.32.05c.15.05.24.12.26.21,1-.56,2-1.12,3.05-1.66,2.24-1.14,4.65-2.24,7.13-3.3,2.91-1.25,5.93-2.45,9-3.63l1.12-.41,0,0h0c1.6-.59,3.28-1.14,4.89-1.72,2.72-1,5.49-1.93,8.13-2.94a3.24,3.24,0,0,1-.32-.17c-.38-.27-.45-.43-.2-.81a.36.36,0,0,0,0-.46L74,12a.39.39,0,0,0-.45-.18c-.21.05-.31.07-.39,0L72.7,12C69,13.56,65,15.06,61.07,16.6c-2.74,1.08-5.57,2.14-8.22,3.26q-3.72,1.58-7.14,3.26c-1.07.53-2.11,1.05-3.15,1.59l-.07.12-.1,0c-.71.37-1.39.75-2.08,1.12a.43.43,0,0,1-.06.2c-.19.27-.44.5-.66.76a.58.58,0,0,0-.18.32,4.5,4.5,0,0,0,.08.9A1.26,1.26,0,0,1,39.53,28.37ZM73.05,12.13c.14,0,.24.22.3.29,0,.3-.16.46-.38.46s-.42-.17-.41-.34S72.9,12.07,73.05,12.13Zm-1.7.62c.19,0,.36.05.37.28a.35.35,0,0,1-.39.33A.34.34,0,0,1,71,13C71,12.88,71.12,12.75,71.35,12.75Zm-.88,1.15a1,1,0,0,1,.21,0,1,1,0,0,1,.82.75.27.27,0,0,1-.17.23.42.42,0,0,1-.33,0,5.13,5.13,0,0,1-.6-.44c-.08-.07-.21-.19-.19-.25A.59.59,0,0,1,70.47,13.9Z"/>
      <path
        d="M7.79,49.67a.62.62,0,0,1,1,0,.76.76,0,0,0,.2.13c1.42-.87,2.84-1.73,4.24-2.6C15,46.06,16.85,45,18.51,43.8c1.49-1,2.82-2.09,4.17-3.14,1.72-1.36,3.38-2.73,5.1-4.09l.83-.65a3.54,3.54,0,0,1-1.47-.17,2.7,2.7,0,0,0-.9,0c-.18,0-.35,0-.54,0h0L24.11,37C22,38.62,20,40.27,17.84,41.88c-1.95,1.43-4.08,2.81-6.22,4.19-1.72,1.11-3.52,2.21-5.3,3.31a.9.9,0,0,1,.47.28A.6.6,0,0,0,7.79,49.67Z"/>
      <path
        d="M42.1,22.7a.53.53,0,0,1,.34.17c1.32-.69,2.68-1.37,4.1-2,4.48-2.05,9.14-4,13.72-6.06,3.31-1.46,6.69-2.9,9.88-4.4l.48-.23a1,1,0,0,0-.49-.18,1.64,1.64,0,0,1-.91-.29.72.72,0,0,0-.65-.13,1,1,0,0,1-1.08-.32A2.11,2.11,0,0,0,67.1,9c-1,.54-2,1.08-3.12,1.61q-4.27,2.07-8.61,4.12c-3.49,1.65-7.09,3.27-10.5,5l-1,.53a.57.57,0,0,1-.22.12l-.16.07-.3.15a.49.49,0,0,0-.21.58c0,.22-.06.34-.3.38a2.57,2.57,0,0,0-.61.2c-.27.13-.24.39-.22.63A.37.37,0,0,0,42.1,22.7ZM63.41,11c.05,0,.21.09.23.2a.39.39,0,0,1-.13.34,4.88,4.88,0,0,1-.66.41.19.19,0,0,1-.29-.17A1,1,0,0,1,63.41,11Zm-2.88,1.33c.06,0,.13.1.24.18l-.24.23-.2-.24C60.39,12.45,60.45,12.35,60.53,12.34ZM44.46,20.51c.17,0,.33.07.33.25a.36.36,0,0,1-.25.23c-.19,0-.27-.11-.3-.35C44.29,20.6,44.37,20.51,44.46,20.51Z"/>
      <path
        d="M3.27,48.7a3,3,0,0,1,.61.14l.24-.16c1.72-1.1,3.45-2.2,5.13-3.31,2.41-1.59,4.91-3.17,7.14-4.81,2.07-1.51,4-3.07,5.92-4.61a1.94,1.94,0,0,1,0-.24.53.53,0,0,0-.22-.65,1,1,0,0,1-.19-.16.44.44,0,0,1,.07-.7,1.32,1.32,0,0,0,.66-.86,1.66,1.66,0,0,0,.06-.21c-1.14.88-2.23,1.76-3.38,2.64-2.7,2-5.3,4.12-8.19,6.12s-5.91,3.94-8.93,5.9A1.33,1.33,0,0,0,3.27,48.7Z"/>
      <path d="M41.18,23.52l.7-.36C41.53,23,41.36,23.28,41.18,23.52Z"/>
      <path
        d="M57.26,11.34c1.76-.92,3.47-1.86,5.1-2.82a1.18,1.18,0,0,0-.39.19,1.32,1.32,0,0,1-.48.22,5.35,5.35,0,0,0-.79.19,1.86,1.86,0,0,1-.81.16,3,3,0,0,0-1,0,4.78,4.78,0,0,1-1.8.13c-.42,0-.49-.16-.34-.55a.64.64,0,0,0,.05-.24c-1.91,1.16-3.92,2.28-5.92,3.41-1.7,1-3.45,1.9-5.21,2.83a.22.22,0,0,1-.18.14l-.17.05-.43.23a3.17,3.17,0,0,0-.34.3.38.38,0,0,0,0,.59c.1.11.21.21.3.33a.38.38,0,0,1-.17.63.86.86,0,0,0-.29.13,1.5,1.5,0,0,0-.27.34c-.09.15-.16.32-.25.48,2-1,4.11-2.05,6.15-3.09C52.46,13.8,54.89,12.58,57.26,11.34Z"/>
      <path
        d="M.38,44.58a.42.42,0,0,0-.07.68c.07.09.16.17.24.26a1.93,1.93,0,0,1,.51.81l2.63-1.77c2-1.34,4.13-2.66,6.07-4s3.53-2.62,5.26-3.93c2.69-2,5.26-4.11,8.09-6.12.58-.42,1.18-.84,1.78-1.25a.87.87,0,0,1,.29-.28,2.89,2.89,0,0,0,.51-.35.94.94,0,0,0,.4-.88.29.29,0,0,1,0-.21c.33-.3.54-.73,1-.89a.55.55,0,0,0,.42-.55.74.74,0,0,1,.33-.6.37.37,0,0,0,.16-.43c0-.07,0-.12,0-.16l-.33.2c-2.63,1.66-5.09,3.37-7.46,5.09-2.61,1.89-5,3.83-7.54,5.72C9.76,38,6.74,40.15,3.73,42.26c-1,.74-2.12,1.46-3.2,2.19C.48,44.49.45,44.53.38,44.58ZM17.87,32.85c.15,0,.32,0,.3.23s-.15.17-.28.3l-.33-.31A.93.93,0,0,1,17.87,32.85Z"/>
      <path d="M63.7,7.7v0A1.75,1.75,0,0,1,64,7.54C63.87,7.49,63.77,7.54,63.7,7.7Z"/>
      <path d="M53.53,7.38a.6.6,0,0,0-.49.29,1.8,1.8,0,0,1-.25.29.45.45,0,0,0-.12.12l1.09-.73Z"/>
      <path
        d="M.72,42c1.48-1,3-2,4.38-3,2.08-1.49,4-3,6.05-4.51,2.65-2,5.23-4,8-6,2.33-1.68,4.73-3.35,7.31-5,1.3-.83,2.66-1.64,4-2.46,0-.1,0-.19,0-.28,0-.44.14-.52.57-.49a.45.45,0,0,0,.47-.31,3,3,0,0,1,1.06-1.31,2.19,2.19,0,0,0,.76-.86,8.11,8.11,0,0,1,.63-1,1.29,1.29,0,0,0,.18-.32c-1.9,1.13-3.81,2.25-5.64,3.4-2.15,1.33-4.2,2.69-6.25,4.06-1.79,1.19-3.54,2.4-5.25,3.61-1.33.94-2.59,1.9-3.86,2.86-2.62,2-5.19,4-7.85,6C4.15,37.25,3,38.07,1.8,38.89a.87.87,0,0,0,.35.56c.08,0,.1.26.06.34s-.21.13-.33.14-.17-.06-.24-.12c-.26-.18-.43-.16-.67.09a.49.49,0,0,0,0,.67.89.89,0,0,1,0,1.18Zm30-23c.07,0,.17.09.32.17-.16.11-.24.21-.33.22s-.18-.13-.17-.18A.3.3,0,0,1,30.71,19Z"/>
      <path d="M55.12,6.44,55,6.29c0-.08-.17-.12-.31-.2,0,.24,0,.44,0,.63C54.84,6.63,55,6.54,55.12,6.44Z"/>
      <path
        d="M24.63,17.29c-2.12,1.43-4.23,2.86-6.29,4.3S14.2,24.49,12.22,26c-1.19.88-2.35,1.76-3.5,2.65,0,.14-.05.22-.33.4l-.1.07c-.14.08-.22.11-.29.09L6.4,30.39a.41.41,0,0,0,.28.15l.39.07c.19.07.28.25.17.38a4.89,4.89,0,0,1-.66.63.49.49,0,0,1-.36.05c-.61-.09-.82,0-1,.64a1.15,1.15,0,0,1-.28.43c-.37.36-.38.49,0,.86a.24.24,0,0,1,0,.07.11.11,0,0,0,0,.06c-.09,0-.19,0-.28-.09s-.38-.07-.44.11A1.7,1.7,0,0,0,4,34.81l.27-.19c1.5-1.1,2.92-2.23,4.39-3.33,1.7-1.31,3.4-2.6,5.14-3.89,1.93-1.41,3.85-2.83,5.86-4.22,1.77-1.23,3.65-2.43,5.5-3.64,1.66-1.07,3.34-2.15,5-3.22s3.69-2.3,5.51-3.46c.1-.2.19-.41.29-.61a1.31,1.31,0,0,1,.21-.27c.3-.32.23-.62-.21-.71a1.57,1.57,0,0,0-.47.05,2.36,2.36,0,0,1-.52.09c-.37,0-.75-.11-1.12-.15l-.16,0-3.09,2.09C28.66,14.64,26.61,16,24.63,17.29Z"/>
      <path d="M9.54,25.15a.31.31,0,0,0-.16.21s0,0,0,0l.43-.31A1.43,1.43,0,0,0,9.54,25.15Z"/>
      <path
        d="M19.33,15.38c-1.71,1.25-3.46,2.48-5.16,3.72-.83.61-1.64,1.22-2.44,1.83a.86.86,0,0,0-.05.87c.07.16.09.24-.08.36s-.19.29-.31.41q-.45.49-.93,1s-.16,0-.24.06c-.32,0-.4.18-.22.47s.26.34.38.51a.31.31,0,0,1,.07.12l4.25-3.11c1.7-1.23,3.4-2.46,5.15-3.69,2.41-1.68,4.87-3.37,7.3-5.05,1.8-1.26,3.6-2.52,5.37-3.8l.43-.32,0-.07a.51.51,0,0,1,.33-.75.81.81,0,0,0,.31-.15.57.57,0,0,0,.15-.37c0-.08-.19-.15-.31-.2s-.38-.11-.54-.2a.29.29,0,0,0-.44.08,2.44,2.44,0,0,1-.22.31.53.53,0,0,1-.68.07.4.4,0,0,1-.18-.55,1.13,1.13,0,0,0,.06-.32h0l-5.89,4.36C23.39,12.41,21.37,13.9,19.33,15.38Z"/>
      <path
        d="M8.13,17.83h2.53a11.12,11.12,0,0,1,1.29,0l.08,0,1.39-1.06,5.09-3.85,4.15-3.16,4-3,.14-.16A2.11,2.11,0,0,0,27,6.25l-.07-.06c-.05,0-.12,0-.16,0a1,1,0,0,1-.71.13,1.25,1.25,0,0,0-.54.06.66.66,0,0,1-.61-.06.72.72,0,0,0-.61-.08,1.74,1.74,0,0,1-.75,0,1.39,1.39,0,0,0-.61,0q-1.89,1.5-3.81,3c-2.33,1.82-4.7,3.62-7,5.44Z"/>
      <path
        d="M5.33,13.82l-2,1.66.39.12c.36.13.43.23.37.61s.05.42.28.47a1.55,1.55,0,0,0,.29,0,1.11,1.11,0,0,1,.71.24c1.06-.85,2.1-1.71,3.17-2.56l5.2-4.1,4.82-3.86a3.22,3.22,0,0,1-1.66,0h-.13c-.69,0-1.39,0-2.08.07a1.72,1.72,0,0,1-.33,0l-.47.38L8.74,11Z"/>
      <path
        d="M1.65,13.09a.72.72,0,0,0,.11.34s0,0,0,.07l1.5-1.27c1.15-1,2.28-1.94,3.44-2.91L9.32,7.17c-.56-.09-1.15.12-1.69-.13a.43.43,0,0,0-.25,0c-.19,0-.33.13-.28.36a.46.46,0,0,1-.28.54c-.5.29-.49.3-.06.67.07.05.15.17.13.22A.32.32,0,0,1,6.67,9a1.44,1.44,0,0,1-1-.19,1.15,1.15,0,0,0-.41-.17c-.38-.08-.76-.14-1.14-.19l-.24-.07L2.27,9.72c0,.27-.16.39-.4.35L0,11.69a1.55,1.55,0,0,0,.93.52C1.58,12.27,1.68,12.43,1.65,13.09ZM4.46,9.78a.21.21,0,0,1,.33.12c-.11.11-.23.19-.37.06S4.42,9.8,4.46,9.78Z"/>
      <path d="M34.63,47.76c.08.26.5.51.71.42s.13-.15.19-.22-.15-.18-.24-.19A4.77,4.77,0,0,0,34.63,47.76Z"/>
      <path
        d="M40.41,35.2a12.65,12.65,0,0,0-1-.8.47.47,0,0,0-.74.45c0,.22.21.12.33.18a6.35,6.35,0,0,1,.81.44c.21.15,0,.39,0,.58s.11.3.43.33.3-.09.3-.29,0-.33,0-.49l0,0A1,1,0,0,0,40.41,35.2Z"/>
      <path d="M52.4,48.25s0-.12,0-.19h-.06a.66.66,0,0,0-.14.2s.07.11.1.16S52.38,48.32,52.4,48.25Z"/>
      <path
        d="M38.75,32.18a.26.26,0,0,0-.23.13.76.76,0,0,0,.63.86A1.12,1.12,0,0,0,39.5,33c.08-.06.13-.25.09-.3A1.2,1.2,0,0,0,38.75,32.18Z"/>
      <path d="M54.79,22.38a1.7,1.7,0,0,0-.29-.17s-.09.07-.13.11.11.14.17.16S54.66,22.44,54.79,22.38Z"/>
      <path d="M1.92,9.13c.05,0,.15-.08.17-.14s-.16-.37-.36-.37-.32,0-.31.2S1.69,9.06,1.92,9.13Z"/>
      <path
        d="M111,9.45c-4.18,0-7.94,1.62-9.89,4.4l-.18-.29v-.08c.1-.57-.2-1.12.12-1.66a.69.69,0,0,0,0-.72l-.13.06c-.07,0-.19,0-.22,0l-.06,0a58.29,58.29,0,0,1-8.74,3.47c-2.06.61-4.16,1.19-6.28,1.75,0,.18,0,.35,0,.52a2.88,2.88,0,0,0,.1.51,1.17,1.17,0,0,1,0,.74l4.09-1c3.69-.9,7.65-1.91,11-3v2.16c-2.63.67-6,1.5-8.45,2l-6.78,1.46h0a.82.82,0,0,1-.06.43.55.55,0,0,0,.06.59.7.7,0,0,1,.16.46l4.77-1c3-.62,7-1.21,10.3-1.8V20l-6.35,1c-3,.51-6,1-8.9,1.63,0,.46-.09.91-.12,1.37,3.67-.75,7.5-1.36,11.39-1.92l5-.71c0-.16,0-.32,0-.47a6.38,6.38,0,0,1,.73-.83,10.19,10.19,0,0,1,5-1.37c4.17,0,6.51,2.56,6.51,6.73V45.88h10.54V24.24C124.62,15,119.66,9.45,111,9.45Z"/>
      <polygon
        points="141.89 35.9 144.86 32.73 155.19 45.88 167.07 45.88 151.65 26.36 165.87 10.23 153.63 10.23 141.89 23.81 141.89 0 131.35 0 131.35 45.88 141.89 45.88 141.89 35.9"/>
      <path
        d="M181.65,49.14a3.76,3.76,0,0,1-1.48,2.26,5.18,5.18,0,0,1-3,.78,14.3,14.3,0,0,1-4.32-.57v9.13a20.27,20.27,0,0,0,4.67.49c4,0,7.22-1.06,9.55-3.11a16.7,16.7,0,0,0,4.1-6.58L207,10.23H196.23L187.45,35l-9.69-24.76H167l15.21,37.35Z"/>
      <path
        d="M208.18,34.07a6.35,6.35,0,0,0-6.35,6.35v0s0,0,0,0a6.29,6.29,0,0,0,6.29,6.29,6.12,6.12,0,0,0,2.5-.53,6.34,6.34,0,0,0-2.44-12.2Z"/>
      <path
        d="M244.83,22.07l6.5-6.43a20.3,20.3,0,0,0-28.75-1.14A17.9,17.9,0,0,0,216.88,28a17.8,17.8,0,0,0,5.7,13.44,19.67,19.67,0,0,0,14,5.38,19.44,19.44,0,0,0,14.77-6.56l-6.5-6.43a11.13,11.13,0,0,1-8.27,3.65,9.1,9.1,0,0,1-6.62-2.68,9.21,9.21,0,0,1-2.72-6.8,9.36,9.36,0,0,1,2.68-6.84,9,9,0,0,1,6.66-2.72A11.13,11.13,0,0,1,244.83,22.07Z"/>
      <polygon
        points="269.97 36.58 288.18 17.51 288.18 10.22 256.24 10.22 256.24 19.28 273.9 19.28 254.31 39.37 254.31 45.87 288.89 45.87 288.89 36.82 269.74 36.82 269.97 36.58"/>
    </g>
  </g>
</svg>
